<?xml version="1.0" standalone="no"?><!DOCTYPE svg PUBLIC "-//W3C//DTD SVG 1.1//EN" "http://www.w3.org/Graphics/SVG/1.1/DTD/svg11.dtd"><svg class="icon" height="512" viewBox="0 0 1034 1024" version="1.1" xmlns="http://www.w3.org/2000/svg"><path d="M1030.960865 0C993.773496 307.738947 952.544022 611.435789 914.188935 918.366316 809.094198 944.774737 706.694198 973.877895 601.599461 1000.286316 576.448584 977.201404 558.214198 947.559298 536.925777 920.522105 515.637356 893.484912 492.732093 868.064561 472.252093 840.757895L472.252093 982.770526C324.31104 992.920702 180.501917 1007.202807 34.626829 1019.418947 44.956654 855.399298 56.364373 693.355789 64.807882 527.898947 48.280163 526.461754 22.410689 534.366316 0.134198 534.366316-0.853872 389.658947 3.996654 250.790175 2.289987 105.364211 138.823321 80.842105 276.434549 57.577544 411.889987 32.067368 434.9749 52.996491 449.975601 81.381053 467.940514 107.52 485.905426 133.658947 503.870338 158.540351 521.835251 182.972632 517.433847 144.976842 516.266128 103.747368 512.852794 64.404211 686.393847 43.475088 856.701215 19.761404 1030.960865 0L1030.960865 0ZM632.139812 463.494737C545.638759 344.477193 462.461215 222.13614 373.445075 105.633684 281.913847 123.598596 185.442268 137.521404 93.192444 155.216842 94.449987 235.52 89.419812 309.535439 91.036654 390.197895 117.265426 389.12 139.362268 383.910175 164.333496 381.215439 151.937707 539.845614 143.1349 702.068772 131.996654 862.315789 214.994549 854.770526 300.148233 849.381053 382.068233 840.757895L382.068233 536.432281C451.143321 616.196491 530.009286 717.069474 601.868935 803.750175 610.851391 814.349474 627.558759 838.69193 636.361566 840.398596 646.601566 842.374737 670.225426 831.41614 683.788935 827.46386 735.527882 813.900351 784.931391 803.031579 832.718058 790.45614 864.515952 553.498947 895.595251 315.374035 927.572794 79.045614 821.100748 91.022222 715.467064 103.956959 610.671742 117.849825 615.522268 234.352281 628.097707 353.998596 632.139812 463.494737L632.139812 463.494737ZM129.840865 189.709474C140.260514 225.639298 146.188935 265.341754 153.554549 303.966316 186.609987 298.93614 217.509636 291.750175 250.565075 286.72 225.863321 458.913684 201.43104 631.376842 179.693496 806.265263 182.837356 651.317895 197.658408 489.723509 205.56297 331.991579 178.075895 334.046661 150.726081 337.64532 123.64297 342.770526 124.810689 291.121404 128.76297 241.807719 129.840865 189.709474L129.840865 189.709474ZM649.386128 245.76C665.464724 360.915088 676.333496 502.119298 692.501917 625.178947 685.226128 625.178947 681.184022 616.735439 677.411391 612.244211 646.781215 575.775439 614.085075 529.964912 580.400865 494.035088 606.270338 499.065263 632.139812 522.778947 660.165075 532.839298 655.763672 437.625263 652.889286 341.333333 649.386128 245.76L649.386128 245.76Z" /></svg>