<svg xmlns="http://www.w3.org/2000/svg" width="1280" height="720" viewBox="0 0 1280 720">
  <g fill="none" fill-rule="evenodd">
    <polygon points="0 0 1280 0 1280 720 0 720"/>
    <rect width="600" height="600" x="340" y="60" fill="#013369" rx="48"/>
    <g transform="translate(471.25 127.969)">
      <path fill="#FFFFFE" d="M325.846801,53.3762387 C311.357072,63.7715139 283.642099,77.9400811 247.98449,69.1549358 C186.188914,53.9321512 168.501968,0.705692001 168.501968,0.705692001 C168.501968,0.705692001 150.817902,53.9407923 89.0194455,69.1549358 C53.3431144,77.9400811 25.6339019,63.7657532 11.1571346,53.3762387 L0,53.3762387 L0,340.398458 C0.00432056327,347.659885 1.77143094,361.949427 13.5492864,376.256253 C28.089422,393.920156 52.7540776,405.375409 86.8433218,410.300851 C113.995182,414.231123 134.072839,422.767116 148.229885,436.389852 C158.630921,446.402038 168.501968,463.740458 168.501968,463.740458 C168.501968,463.740458 178.748904,446.04055 188.774051,436.389852 C202.931096,422.767116 223.015955,414.229683 250.160614,410.300851 C284.246977,405.376849 308.913073,393.920156 323.457529,376.257693 C335.223863,361.960949 336.993854,347.654124 337.003935,340.398458 L337.003935,53.3762387 L325.846801,53.3762387"/>
      <path fill="#013369" d="M326.890937,64.5679377 C326.890937,64.5679377 293.112773,90.8571251 245.53185,78.9669349 C190.052937,65.1022474 168.501968,23.5513904 168.501968,23.5513904 C168.501968,23.5513904 146.952438,65.1036876 91.4720852,78.9669349 C43.8926023,90.8571251 10.1129984,64.5679377 10.1129984,64.5679377 L10.1129984,340.384056 C10.1187592,349.756798 14.0389503,389.563588 88.2921507,400.292986 C117.608613,404.53722 139.506668,413.961808 155.240719,429.103942 C160.909298,434.537771 165.215459,440.075293 168.501968,445.151955 C171.797117,440.075293 176.087437,434.537771 181.747374,429.103942 C197.498708,413.961808 219.396763,404.53722 248.713225,400.292986 C322.963545,389.563588 326.877975,349.756798 326.890937,340.384056 L326.890937,64.5679377"/>
      <path fill="#FFFFFE" d="M168.501968,417.074054 C168.501968,417.074054 190.051497,390.512671 246.048877,381.874425 C310.19196,371.976015 308.285151,341.860248 308.288032,340.332209 L308.288032,195.884258 L28.7159037,195.884258 L28.7159037,340.332209 C28.7159037,341.853048 26.8206166,371.974574 90.9550578,381.874425 C146.950998,390.515552 168.501968,417.074054 168.501968,417.074054"/>
      <polyline fill="#D50A0A" points="103.333 301.456 103.323 232.757 94.698 227.926 94.698 210.112 133.959 210.112 133.959 227.926 125.75 232.757 125.75 372.888 104.764 366.6 74.426 277.085 74.42 336.099 84.054 343.499 84.054 361.686 41.933 350.98 41.933 335.476 51.572 331.707 51.572 232.816 41.699 227.926 41.699 210.112 73.572 210.112 103.333 301.456"/>
      <polyline fill="#D50A0A" points="175.601 364.281 184.01 374.354 184.01 392.167 142.288 376.577 142.288 361.457 151.498 357.686 151.498 232.757 142.342 228.129 142.342 210.112 214.788 210.112 214.788 246.364 198.864 246.364 194.038 231.48 175.601 231.48 175.601 273.399 189.437 273.399 194.882 265.437 205.984 265.437 205.984 302.74 194.882 302.74 189.642 295.198 175.601 295.198 175.601 364.281"/>
      <polyline fill="#D50A0A" points="221.658 370.589 221.658 352.775 232.019 344.268 232.019 232.757 223.171 228.129 223.171 210.112 264.946 210.112 264.946 228.129 256.738 232.757 256.738 337.377 274.687 332.525 278.13 305.108 295.306 305.108 295.306 350.915 221.658 370.589"/>
      <polyline fill="#FFFFFE" points="35.983 166.333 23.34 156.819 38.791 156.819 43.894 142.18 48.997 156.819 64.448 156.819 51.805 166.334 56.455 181.194 43.894 172.367 31.331 181.194 35.983 166.333"/>
      <polyline fill="#FFFFFE" points="90.841 166.333 78.198 156.819 93.648 156.819 98.751 142.18 103.853 156.819 119.307 156.819 106.663 166.334 111.315 181.194 98.751 172.367 86.189 181.194 90.841 166.333"/>
      <polyline fill="#FFFFFE" points="35.983 116.825 23.34 107.311 38.791 107.311 43.894 92.67 48.997 107.311 64.448 107.311 51.805 116.827 56.455 131.685 43.894 122.858 31.331 131.685 35.983 116.825"/>
      <polyline fill="#FFFFFE" points="90.841 116.825 78.198 107.311 93.648 107.311 98.751 92.67 103.853 107.311 119.307 107.311 106.663 116.827 111.315 131.685 98.751 122.858 86.189 131.685 90.841 116.825"/>
      <polyline fill="#FFFFFE" points="305.676 181.194 293.111 172.366 280.55 181.194 285.199 166.333 272.557 156.818 288.009 156.818 293.111 142.18 298.212 156.818 313.664 156.818 301.022 166.333 305.676 181.194"/>
      <polyline fill="#FFFFFE" points="250.816 181.194 238.253 172.366 225.69 181.194 230.341 166.333 217.697 156.818 233.151 156.818 238.253 142.18 243.357 156.818 258.806 156.818 246.163 166.333 250.816 181.194"/>
      <polyline fill="#FFFFFE" points="305.676 131.685 293.111 122.858 280.55 131.685 285.199 116.825 272.557 107.31 288.009 107.31 293.111 92.67 298.212 107.31 313.664 107.31 301.022 116.825 305.676 131.685"/>
      <polyline fill="#FFFFFE" points="250.816 131.685 238.253 122.858 225.69 131.685 230.341 116.825 217.697 107.31 233.151 107.31 238.253 92.67 243.357 107.31 258.806 107.31 246.163 116.825 250.816 131.685"/>
      <path fill="#FFFFFE" d="M180.528976,106.046785 C174.899282,101.412261 168.589819,98.4123501 161.885745,96.985124 C163.510277,95.4498838 165.170813,94.1335522 166.631164,92.9151534 C175.008736,94.9299761 180.648511,98.6831054 184.489492,101.873121 C183.116993,103.278744 181.7877,104.649803 180.528976,106.046785 Z M172.397676,115.8271 C167.034416,111.325073 160.510366,107.966556 153.117882,106.486043 C154.246989,105.027132 155.571962,103.47461 156.840767,102.038743 C162.483423,103.041114 169.718926,106.015101 176.025509,111.2185 C174.7351,112.763821 173.532544,114.333626 172.397676,115.8271 Z M165.097364,126.079797 C159.31357,121.259489 152.56629,118.305664 145.947187,117.042619 C145.947187,117.042619 147.976412,113.730187 149.132883,112.010603 C157.228178,113.612092 163.799755,117.396905 168.396834,121.288292 C167.21588,122.973312 166.095414,124.590643 165.097364,126.079797 Z M203.331468,77.1105329 C203.331468,77.1105329 196.782935,80.5223377 187.642063,89.5091093 C189.704412,90.6756614 192.024554,92.305954 193.353848,93.4076976 C191.974148,94.6332974 190.561324,95.9525094 189.250753,97.1939512 C183.304217,92.2944325 177.10997,89.8029076 172.314145,88.6334752 C173.906992,87.4914063 175.596333,86.3680598 177.268391,85.2807181 C179.846327,85.9374437 182.339292,86.9513359 182.339292,86.9513359 C192.662557,79.0936715 201.591722,75.7020293 201.591722,75.7020293 C201.591722,75.7020293 200.556227,75.1950832 197.796827,75.2310879 C157.215216,75.7553162 119.826502,106.053986 126.884862,157.896425 C127.63952,163.393622 129.776759,173.392845 132.492953,177.778217 C133.397391,169.150052 136.636373,150.057483 146.258268,129.605377 C142.914152,128.40714 140.14035,127.911716 140.14035,127.911716 C141.121118,125.849367 142.489296,123.222465 142.489296,123.222465 C149.606704,124.56472 155.896004,127.543028 161.342794,131.859271 C160.035104,133.970586 159.150829,135.351726 158.528667,136.437627 C156.618978,134.934071 154.689127,133.636462 152.56197,132.456948 C141.75048,151.359413 136.731426,169.201899 134.695,178.56744 C134.807335,179.143515 135.985408,179.441634 136.933052,179.319218 C181.400289,173.562787 202.218203,150.88127 208.553589,126.303026 C212.718612,110.178684 211.354754,93.3169658 205.776907,79.5660531 C205.385176,78.5996871 204.624757,76.9953179 203.331468,77.1105329 Z"/>
    </g>
  </g>
</svg>
